<svg width="100" height="85" viewBox="0 0 100 85" fill="none" xmlns="http://www.w3.org/2000/svg">
<path fill-rule="evenodd" clip-rule="evenodd" d="M68.9512 5.35039C69.1515 4.87945 69.2557 4.37328 69.2578 3.86155C69.26 3.34981 69.1599 2.8428 68.9636 2.37021C68.7672 1.89763 68.4786 1.46899 68.1145 1.10941C67.7503 0.749821 67.3181 0.466524 66.8431 0.276115C66.3681 0.0857061 65.8599 -0.00798537 65.3482 0.000532831C64.8366 0.00905103 64.3317 0.119607 63.8633 0.325721C63.3949 0.531836 62.9724 0.829364 62.6205 1.20087C62.2685 1.57238 61.9943 2.01039 61.8138 2.48924L31.0488 79.4017C30.8485 79.8727 30.7443 80.3788 30.7422 80.8906C30.7401 81.4023 30.8401 81.9093 31.0364 82.3819C31.2328 82.8545 31.5214 83.2831 31.8856 83.6427C32.2497 84.0023 32.6819 84.2856 33.1569 84.476C33.6319 84.6664 34.1401 84.7601 34.6518 84.7516C35.1634 84.7431 35.6683 84.6325 36.1367 84.4264C36.6051 84.2203 37.0276 83.9228 37.3796 83.5513C37.7315 83.1798 38.0057 82.7417 38.1862 82.2629L68.9512 5.35039ZM21.9577 24.2709C22.3158 24.6281 22.6 25.0525 22.7938 25.5197C22.9877 25.9869 23.0875 26.4877 23.0875 26.9936C23.0875 27.4994 22.9877 28.0003 22.7938 28.4675C22.6 28.9347 22.3158 29.359 21.9577 29.7163L9.29021 42.3761L21.9577 55.0359C22.6798 55.758 23.0855 56.7374 23.0855 57.7586C23.0855 58.7798 22.6798 59.7592 21.9577 60.4813C21.2356 61.2034 20.2562 61.609 19.235 61.609C18.2138 61.609 17.2344 61.2034 16.5123 60.4813L1.1298 45.0988C0.771667 44.7415 0.487531 44.3172 0.293662 43.85C0.0997924 43.3828 0 42.8819 0 42.3761C0 41.8702 0.0997924 41.3694 0.293662 40.9022C0.487531 40.435 0.771667 40.0106 1.1298 39.6534L16.5123 24.2709C16.8695 23.9127 17.2939 23.6286 17.7611 23.4347C18.2283 23.2409 18.7292 23.1411 19.235 23.1411C19.7408 23.1411 20.2417 23.2409 20.7089 23.4347C21.1761 23.6286 21.6005 23.9127 21.9577 24.2709ZM78.0423 24.2709C78.3995 23.9127 78.8239 23.6286 79.2911 23.4347C79.7583 23.2409 80.2592 23.1411 80.765 23.1411C81.2708 23.1411 81.7717 23.2409 82.2389 23.4347C82.7061 23.6286 83.1305 23.9127 83.4877 24.2709L98.8702 39.6534C99.2283 40.0106 99.5125 40.435 99.7063 40.9022C99.9002 41.3694 100 41.8702 100 42.3761C100 42.8819 99.9002 43.3828 99.7063 43.85C99.5125 44.3172 99.2283 44.7415 98.8702 45.0988L83.4877 60.4813C82.7656 61.2034 81.7862 61.609 80.765 61.609C79.7438 61.609 78.7644 61.2034 78.0423 60.4813C77.3202 59.7592 76.9145 58.7798 76.9145 57.7586C76.9145 56.7374 77.3202 55.758 78.0423 55.0359L90.7098 42.3761L78.0423 29.7163C77.6842 29.359 77.4 28.9347 77.2062 28.4675C77.0123 28.0003 76.9125 27.4994 76.9125 26.9936C76.9125 26.4877 77.0123 25.9869 77.2062 25.5197C77.4 25.0525 77.6842 24.6281 78.0423 24.2709Z" fill="#418A3E"/>
</svg>
